<svg width="24" height="24" viewBox="0 0 24 24" fill="none" xmlns="http://www.w3.org/2000/svg">
<path d="M4.5 3.75L19.5 20.25" stroke="#D2D3D6" stroke-width="1.5" stroke-linecap="round" stroke-linejoin="round"/>
<path d="M14.5223 14.7747C13.7864 15.4436 12.8149 15.7928 11.8215 15.7454C10.8281 15.6981 9.89422 15.2581 9.22524 14.5222C8.55626 13.7863 8.20698 12.8149 8.25424 11.8215C8.3015 10.8281 8.74142 9.89414 9.47724 9.2251" stroke="#D2D3D6" stroke-width="1.5" stroke-linecap="round" stroke-linejoin="round"/>
<path d="M6.93698 6.43066C3.11486 8.36618 1.5 12 1.5 12C1.5 12 4.5 18.7493 12 18.7493C13.7572 18.7633 15.4926 18.3585 17.0623 17.5685" stroke="#D2D3D6" stroke-width="1.5" stroke-linecap="round" stroke-linejoin="round"/>
<path d="M19.5586 15.8533C21.6025 14.0227 22.5015 12.0003 22.5015 12.0003C22.5015 12.0003 19.5015 5.24953 12.0015 5.24953C11.3519 5.24846 10.7033 5.30128 10.0625 5.40742" stroke="#D2D3D6" stroke-width="1.5" stroke-linecap="round" stroke-linejoin="round"/>
<path d="M12.707 8.31641C13.5041 8.46945 14.23 8.8768 14.7759 9.47734C15.3219 10.0779 15.6584 10.8392 15.735 11.6472" stroke="#D2D3D6" stroke-width="1.5" stroke-linecap="round" stroke-linejoin="round"/>
</svg>
