<svg width="24" height="24" viewBox="0 0 24 24" fill="none" xmlns="http://www.w3.org/2000/svg">
<rect width="24" height="24" fill="white" fill-opacity="0.01"/>
<path fill-rule="evenodd" clip-rule="evenodd" d="M12.7104 14.6935C12.5229 14.881 12.2686 14.9863 12.0034 14.9863C11.7383 14.9863 11.484 14.881 11.2964 14.6935L6.70343 10.1005C6.52087 9.91424 6.4192 9.66343 6.42052 9.4026C6.42184 9.14177 6.52603 8.892 6.71047 8.70757C6.89491 8.52313 7.14468 8.41893 7.40551 8.41761C7.66634 8.4163 7.91714 8.51797 8.10343 8.70053L12.0034 12.6005L15.9034 8.70053C16.0897 8.51797 16.3405 8.4163 16.6014 8.41762C16.8622 8.41893 17.112 8.52313 17.2964 8.70757C17.4808 8.892 17.585 9.14177 17.5864 9.4026C17.5877 9.66343 17.486 9.91424 17.3034 10.1005L12.7104 14.6935Z" fill="#45536C"/>
</svg>
