<svg width="12" height="7" viewBox="0 0 12 7" fill="none" xmlns="http://www.w3.org/2000/svg">
<path fill-rule="evenodd" clip-rule="evenodd" d="M7.10993 0.696351L11.7029 5.28935C11.7964 5.38094 11.8708 5.49014 11.9217 5.61065C11.9727 5.73115 11.9993 5.86057 12 5.99142C12.0006 6.12227 11.9754 6.25195 11.9256 6.37297C11.8758 6.49398 11.8026 6.60393 11.71 6.69646C11.6175 6.78898 11.5076 6.86225 11.3865 6.91202C11.2655 6.96179 11.1358 6.98707 11.005 6.98641C10.8742 6.98575 10.7447 6.95915 10.6242 6.90817C10.5037 6.85718 10.3945 6.78281 10.3029 6.68935L6.40293 2.78935L2.50293 6.68935C2.31664 6.87191 2.06583 6.97358 1.805 6.97227C1.54417 6.97095 1.2944 6.86675 1.10996 6.68232C0.925528 6.49788 0.82133 6.24811 0.820013 5.98728C0.818696 5.72645 0.920364 5.47564 1.10293 5.28935L5.69493 0.696351C5.88246 0.50888 6.13676 0.403564 6.40193 0.403564C6.66709 0.403564 6.9214 0.50888 7.10893 0.696351L7.10993 0.696351Z" fill="#0747A6"/>
</svg>
